{
	"asset": {
		"generator": "Blocks 4.0.1RC0 SVR",
		"version": "1.1",
		"copyright": "Unknown"
	},
	"buffers": {
		"model": {
			"byteLength": 4821296,
			"type": "arraybuffer",
			"uri": "model.bin"
		}
	},
	"accessors": {
		"accessor_position_m0-PolyPaper21_-185500": {
			"bufferView": "vec3BufferView",
			"byteOffset": 0,
			"byteStride": 12,
			"componentType": 5126,
			"count": 19946,
			"max": [ 0.85225, 3.550064, 0.6404014 ],
			"min": [ -1.020837, 0.9599218, -2.201211 ],
			"type": "VEC3"
		 },
		"accessor_normal_m0-PolyPaper21_-185500": {
			"bufferView": "vec3BufferView",
			"byteOffset": 239352,
			"byteStride": 12,
			"componentType": 5126,
			"count": 19946,
			"max": [ 0.9998853, 0.9996229, 0.9999889 ],
			"min": [ -0.9999325, -0.9995595, -0.9998042 ],
			"type": "VEC3"
		 },
		"accessor_color_m0-PolyPaper21_-185500": {
			"bufferView": "vec4BufferView",
			"byteOffset": 0,
			"byteStride": 16,
			"componentType": 5126,
			"count": 19946,
			"max": [ 1, 1, 1, 1 ],
			"min": [ 0, 0.227451, 0, 1 ],
			"type": "VEC4"
		 },
		"accessor_indices_0_m0-PolyPaper21_-185500": {
			"bufferView": "ushortBufferView",
			"byteOffset": 0,
			"byteStride": 0,
			"componentType": 5123,
			"count": 29520,
			"max": [ 19945 ],
			"min": [ 0 ],
			"type": "SCALAR"
		 },
		"accessor_position_m1-PolyPaper6_-185506": {
			"bufferView": "vec3BufferView",
			"byteOffset": 478704,
			"byteStride": 12,
			"componentType": 5126,
			"count": 19988,
			"max": [ 2.472772, 3.814488, 1.501823 ],
			"min": [ -2.279351, 0.4109439, -1.433892 ],
			"type": "VEC3"
		 },
		"accessor_normal_m1-PolyPaper6_-185506": {
			"bufferView": "vec3BufferView",
			"byteOffset": 718560,
			"byteStride": 12,
			"componentType": 5126,
			"count": 19988,
			"max": [ 0.9998268, 0.9966417, 0.99993 ],
			"min": [ -0.9991103, -0.9962247, -0.9997769 ],
			"type": "VEC3"
		 },
		"accessor_color_m1-PolyPaper6_-185506": {
			"bufferView": "vec4BufferView",
			"byteOffset": 319136,
			"byteStride": 16,
			"componentType": 5126,
			"count": 19988,
			"max": [ 1, 0.8470588, 0.8627451, 1 ],
			"min": [ 0.4039216, 0.227451, 0, 1 ],
			"type": "VEC4"
		 },
		"accessor_indices_0_m1-PolyPaper6_-185506": {
			"bufferView": "ushortBufferView",
			"byteOffset": 59040,
			"byteStride": 0,
			"componentType": 5123,
			"count": 32640,
			"max": [ 19987 ],
			"min": [ 0 ],
			"type": "SCALAR"
		 },
		"accessor_position_m2-PolyPaper15_-185512": {
			"bufferView": "vec3BufferView",
			"byteOffset": 958416,
			"byteStride": 12,
			"componentType": 5126,
			"count": 19982,
			"max": [ -1.659133, 3.573807, 0.3372194 ],
			"min": [ -3.958193, -0.3261169, -2.405189 ],
			"type": "VEC3"
		 },
		"accessor_normal_m2-PolyPaper15_-185512": {
			"bufferView": "vec3BufferView",
			"byteOffset": 1198200,
			"byteStride": 12,
			"componentType": 5126,
			"count": 19982,
			"max": [ 0.9999831, 0.9998739, 0.9999399 ],
			"min": [ -0.9999807, -0.9998979, -0.9994138 ],
			"type": "VEC3"
		 },
		"accessor_color_m2-PolyPaper15_-185512": {
			"bufferView": "vec4BufferView",
			"byteOffset": 638944,
			"byteStride": 16,
			"componentType": 5126,
			"count": 19982,
			"max": [ 1, 1, 1, 1 ],
			"min": [ 0.2980392, 0.2627451, 0.2117647, 1 ],
			"type": "VEC4"
		 },
		"accessor_indices_0_m2-PolyPaper15_-185512": {
			"bufferView": "ushortBufferView",
			"byteOffset": 124320,
			"byteStride": 0,
			"componentType": 5123,
			"count": 33804,
			"max": [ 19981 ],
			"min": [ 0 ],
			"type": "SCALAR"
		 },
		"accessor_position_m3-PolyPaper15_-185518": {
			"bufferView": "vec3BufferView",
			"byteOffset": 1437984,
			"byteStride": 12,
			"componentType": 5126,
			"count": 19940,
			"max": [ -1.360361, 2.904034, 0.6102183 ],
			"min": [ -3.071217, 1.88756, -1.709751 ],
			"type": "VEC3"
		 },
		"accessor_normal_m3-PolyPaper15_-185518": {
			"bufferView": "vec3BufferView",
			"byteOffset": 1677264,
			"byteStride": 12,
			"componentType": 5126,
			"count": 19940,
			"max": [ 0.9998926, 0.9999107, 0.9996287 ],
			"min": [ -0.9973719, -0.99998, -0.9988371 ],
			"type": "VEC3"
		 },
		"accessor_color_m3-PolyPaper15_-185518": {
			"bufferView": "vec4BufferView",
			"byteOffset": 958656,
			"byteStride": 16,
			"componentType": 5126,
			"count": 19940,
			"max": [ 1, 1, 1, 1 ],
			"min": [ 0.9568627, 0.2627451, 0.2117647, 1 ],
			"type": "VEC4"
		 },
		"accessor_indices_0_m3-PolyPaper15_-185518": {
			"bufferView": "ushortBufferView",
			"byteOffset": 191928,
			"byteStride": 0,
			"componentType": 5123,
			"count": 33708,
			"max": [ 19939 ],
			"min": [ 0 ],
			"type": "SCALAR"
		 },
		"accessor_position_m4-PolyPaper21_-185524": {
			"bufferView": "vec3BufferView",
			"byteOffset": 1916544,
			"byteStride": 12,
			"componentType": 5126,
			"count": 19988,
			"max": [ -0.6628793, 3.60554, 0.687178 ],
			"min": [ -4.088418, -0.1408663, -2.521959 ],
			"type": "VEC3"
		 },
		"accessor_normal_m4-PolyPaper21_-185524": {
			"bufferView": "vec3BufferView",
			"byteOffset": 2156400,
			"byteStride": 12,
			"componentType": 5126,
			"count": 19988,
			"max": [ 0.9993272, 0.9997828, 0.999168 ],
			"min": [ -0.9999045, -0.9995277, -0.9996711 ],
			"type": "VEC3"
		 },
		"accessor_color_m4-PolyPaper21_-185524": {
			"bufferView": "vec4BufferView",
			"byteOffset": 1277696,
			"byteStride": 16,
			"componentType": 5126,
			"count": 19988,
			"max": [ 1, 1, 1, 1 ],
			"min": [ 0.5450981, 0.2627451, 0, 1 ],
			"type": "VEC4"
		 },
		"accessor_indices_0_m4-PolyPaper21_-185524": {
			"bufferView": "ushortBufferView",
			"byteOffset": 259344,
			"byteStride": 0,
			"componentType": 5123,
			"count": 33348,
			"max": [ 19987 ],
			"min": [ 0 ],
			"type": "SCALAR"
		 },
		"accessor_position_m5-PolyPaper21_-185530": {
			"bufferView": "vec3BufferView",
			"byteOffset": 2396256,
			"byteStride": 12,
			"componentType": 5126,
			"count": 8722,
			"max": [ -0.5470013, 3.219263, -0.3838338 ],
			"min": [ -3.453216, -0.1186128, -2.457237 ],
			"type": "VEC3"
		 },
		"accessor_normal_m5-PolyPaper21_-185530": {
			"bufferView": "vec3BufferView",
			"byteOffset": 2500920,
			"byteStride": 12,
			"componentType": 5126,
			"count": 8722,
			"max": [ 0.999536, 0.9999552, 0.9987751 ],
			"min": [ -0.9994254, -0.9998794, -0.9986773 ],
			"type": "VEC3"
		 },
		"accessor_color_m5-PolyPaper21_-185530": {
			"bufferView": "vec4BufferView",
			"byteOffset": 1597504,
			"byteStride": 16,
			"componentType": 5126,
			"count": 8722,
			"max": [ 1, 1, 1, 1 ],
			"min": [ 0.4745098, 0.3333333, 0, 1 ],
			"type": "VEC4"
		 },
		"accessor_indices_0_m5-PolyPaper21_-185530": {
			"bufferView": "ushortBufferView",
			"byteOffset": 326040,
			"byteStride": 0,
			"componentType": 5123,
			"count": 15540,
			"max": [ 8721 ],
			"min": [ 0 ],
			"type": "SCALAR"
		 },
		"accessor_position_m7-PolyPaper13_-185542": {
			"bufferView": "vec3BufferView",
			"byteOffset": 2605584,
			"byteStride": 12,
			"componentType": 5126,
			"count": 2790,
			"max": [ -1.876411, 0.3837408, -0.7813429 ],
			"min": [ -2.311577, 0.1115783, -1.341269 ],
			"type": "VEC3"
		 },
		"accessor_normal_m7-PolyPaper13_-185542": {
			"bufferView": "vec3BufferView",
			"byteOffset": 2639064,
			"byteStride": 12,
			"componentType": 5126,
			"count": 2790,
			"max": [ 0.9965476, 0.9999791, 0.9998232 ],
			"min": [ -0.9967222, -0.9999135, -0.9998229 ],
			"type": "VEC3"
		 },
		"accessor_color_m7-PolyPaper13_-185542": {
			"bufferView": "vec4BufferView",
			"byteOffset": 1737056,
			"byteStride": 16,
			"componentType": 5126,
			"count": 2790,
			"max": [ 1, 0.5960785, 0, 1 ],
			"min": [ 1, 0.5960785, 0, 1 ],
			"type": "VEC4"
		 },
		"accessor_indices_0_m7-PolyPaper13_-185542": {
			"bufferView": "ushortBufferView",
			"byteOffset": 357120,
			"byteStride": 0,
			"componentType": 5123,
			"count": 4968,
			"max": [ 2789 ],
			"min": [ 0 ],
			"type": "SCALAR"
		 }
	},
	"bufferViews": {
		"ushortBufferView": {
			"buffer": "model",
			"byteLength": 367056,
			"byteOffset": 0,
			"target": 34963
		},
		"vec3BufferView": {
			"buffer": "model",
			"byteLength": 2672544,
			"byteOffset": 367056,
			"target": 34962
		},
		"vec4BufferView": {
			"buffer": "model",
			"byteLength": 1781696,
			"byteOffset": 3039600,
			"target": 34962
		}
	},
	"meshes": {
		"mesh_m0-PolyPaper21_-185500": {
			"name": "mesh_m0-PolyPaper21_-185500",
			"primitives": [
				{
					"attributes": {
						"POSITION": "accessor_position_m0-PolyPaper21_-185500",
						"NORMAL": "accessor_normal_m0-PolyPaper21_-185500",
						"COLOR": "accessor_color_m0-PolyPaper21_-185500"
					},
					"indices": "accessor_indices_0_m0-PolyPaper21_-185500",
					"material": "material_mat21",
					"mode": 4
				}
			]
		},
		"mesh_m1-PolyPaper6_-185506": {
			"name": "mesh_m1-PolyPaper6_-185506",
			"primitives": [
				{
					"attributes": {
						"POSITION": "accessor_position_m1-PolyPaper6_-185506",
						"NORMAL": "accessor_normal_m1-PolyPaper6_-185506",
						"COLOR": "accessor_color_m1-PolyPaper6_-185506"
					},
					"indices": "accessor_indices_0_m1-PolyPaper6_-185506",
					"material": "material_mat6",
					"mode": 4
				}
			]
		},
		"mesh_m2-PolyPaper15_-185512": {
			"name": "mesh_m2-PolyPaper15_-185512",
			"primitives": [
				{
					"attributes": {
						"POSITION": "accessor_position_m2-PolyPaper15_-185512",
						"NORMAL": "accessor_normal_m2-PolyPaper15_-185512",
						"COLOR": "accessor_color_m2-PolyPaper15_-185512"
					},
					"indices": "accessor_indices_0_m2-PolyPaper15_-185512",
					"material": "material_mat15",
					"mode": 4
				}
			]
		},
		"mesh_m3-PolyPaper15_-185518": {
			"name": "mesh_m3-PolyPaper15_-185518",
			"primitives": [
				{
					"attributes": {
						"POSITION": "accessor_position_m3-PolyPaper15_-185518",
						"NORMAL": "accessor_normal_m3-PolyPaper15_-185518",
						"COLOR": "accessor_color_m3-PolyPaper15_-185518"
					},
					"indices": "accessor_indices_0_m3-PolyPaper15_-185518",
					"material": "material_mat15",
					"mode": 4
				}
			]
		},
		"mesh_m4-PolyPaper21_-185524": {
			"name": "mesh_m4-PolyPaper21_-185524",
			"primitives": [
				{
					"attributes": {
						"POSITION": "accessor_position_m4-PolyPaper21_-185524",
						"NORMAL": "accessor_normal_m4-PolyPaper21_-185524",
						"COLOR": "accessor_color_m4-PolyPaper21_-185524"
					},
					"indices": "accessor_indices_0_m4-PolyPaper21_-185524",
					"material": "material_mat21",
					"mode": 4
				}
			]
		},
		"mesh_m5-PolyPaper21_-185530": {
			"name": "mesh_m5-PolyPaper21_-185530",
			"primitives": [
				{
					"attributes": {
						"POSITION": "accessor_position_m5-PolyPaper21_-185530",
						"NORMAL": "accessor_normal_m5-PolyPaper21_-185530",
						"COLOR": "accessor_color_m5-PolyPaper21_-185530"
					},
					"indices": "accessor_indices_0_m5-PolyPaper21_-185530",
					"material": "material_mat21",
					"mode": 4
				}
			]
		},
		"mesh_m7-PolyPaper13_-185542": {
			"name": "mesh_m7-PolyPaper13_-185542",
			"primitives": [
				{
					"attributes": {
						"POSITION": "accessor_position_m7-PolyPaper13_-185542",
						"NORMAL": "accessor_normal_m7-PolyPaper13_-185542",
						"COLOR": "accessor_color_m7-PolyPaper13_-185542"
					},
					"indices": "accessor_indices_0_m7-PolyPaper13_-185542",
					"material": "material_mat13",
					"mode": 4
				}
			]
		}
	},
	"shaders": {
		"vertex_mat21": {
			"type": 35633,
			"uri": "https://vr.google.com/shaders/w/vs.glsl"
		},
		"fragment_mat21": {
			"type": 35632,
			"uri": "https://vr.google.com/shaders/w/fs.glsl"
		},
		"vertex_mat6": {
			"type": 35633,
			"uri": "https://vr.google.com/shaders/w/vs.glsl"
		},
		"fragment_mat6": {
			"type": 35632,
			"uri": "https://vr.google.com/shaders/w/fs.glsl"
		},
		"vertex_mat15": {
			"type": 35633,
			"uri": "https://vr.google.com/shaders/w/vs.glsl"
		},
		"fragment_mat15": {
			"type": 35632,
			"uri": "https://vr.google.com/shaders/w/fs.glsl"
		},
		"vertex_mat24": {
			"type": 35633,
			"uri": "https://vr.google.com/shaders/w/glassVS.glsl"
		},
		"fragment_mat24": {
			"type": 35632,
			"uri": "https://vr.google.com/shaders/w/glassFS.glsl"
		},
		"vertex_mat13": {
			"type": 35633,
			"uri": "https://vr.google.com/shaders/w/vs.glsl"
		},
		"fragment_mat13": {
			"type": 35632,
			"uri": "https://vr.google.com/shaders/w/fs.glsl"
		}
	},
	"programs": {
		"program_mat21": {
			"attributes": [
				"a_position",
				"a_normal",
				"a_color"				
			],
			"vertexShader": "vertex_mat21",
			"fragmentShader": "fragment_mat21"
		},
		"program_mat6": {
			"attributes": [
				"a_position",
				"a_normal",
				"a_color"				
			],
			"vertexShader": "vertex_mat6",
			"fragmentShader": "fragment_mat6"
		},
		"program_mat15": {
			"attributes": [
				"a_position",
				"a_normal",
				"a_color"				
			],
			"vertexShader": "vertex_mat15",
			"fragmentShader": "fragment_mat15"
		},
		"program_mat24": {
			"attributes": [
				"a_position",
				"a_normal",
				"a_color"				
			],
			"vertexShader": "vertex_mat24",
			"fragmentShader": "fragment_mat24"
		},
		"program_mat13": {
			"attributes": [
				"a_position",
				"a_normal",
				"a_color"				
			],
			"vertexShader": "vertex_mat13",
			"fragmentShader": "fragment_mat13"
		}
	},
	"techniques": {
		"technique_mat21": {
			"program": "program_mat21",
			"extras": {"gvrss" : "https://vr.google.com/shaders/w/gvrss/paper.json"},
			"parameters": {
				"position": {
					"type": 35665,
					"semantic": "POSITION"
				},
				"normal": {
					"type": 35665,
					"semantic": "NORMAL"
				},
				"color": {
					"type": 35666,
					"semantic": "COLOR"
				},
				"modelViewMatrix": {
					"type": 35676,
					"semantic": "MODELVIEW"
				},
				"projectionMatrix": {
					"type": 35676,
					"semantic": "PROJECTION"
				},
				"normalMatrix": {
					"type": 35675,
					"semantic": "MODELVIEWINVERSETRANSPOSE"
				},
				"color": {
					"type": 35666
				},
				"roughness": {
					"type": 5126
				},
				"metallic": {
					"type": 5126
				},
				"light0Pos": {
					"type": 35666
				},
				"light0Color": {
					"type": 35666
				},
				"light1Pos": {
					"type": 35666
				},
				"light1Color": {
					"type": 35666
				}				
			},
			"attributes": {
				"a_position": "position",
				"a_normal": "normal",
				"a_color": "color"				
			},
			"uniforms": {
				"u_modelViewMatrix": "modelViewMatrix",
				"u_projectionMatrix": "projectionMatrix",
				"u_normalMatrix": "normalMatrix",
				"u_color": "color",
				"u_roughness": "roughness",
				"u_metallic": "metallic",
				"u_light0Pos": "light0Pos",
				"u_light0Color": "light0Color",
				"u_light1Pos": "light1Pos",
				"u_light1Color": "light1Color"				
			},
			"states": {
				"enable": [
					2929,
					2884
				],
				"functions": {
					"cullFace": [1029]
				}
			}
		},
		"technique_mat6": {
			"program": "program_mat6",
			"extras": {"gvrss" : "https://vr.google.com/shaders/w/gvrss/paper.json"},
			"parameters": {
				"position": {
					"type": 35665,
					"semantic": "POSITION"
				},
				"normal": {
					"type": 35665,
					"semantic": "NORMAL"
				},
				"color": {
					"type": 35666,
					"semantic": "COLOR"
				},
				"modelViewMatrix": {
					"type": 35676,
					"semantic": "MODELVIEW"
				},
				"projectionMatrix": {
					"type": 35676,
					"semantic": "PROJECTION"
				},
				"normalMatrix": {
					"type": 35675,
					"semantic": "MODELVIEWINVERSETRANSPOSE"
				},
				"color": {
					"type": 35666
				},
				"roughness": {
					"type": 5126
				},
				"metallic": {
					"type": 5126
				},
				"light0Pos": {
					"type": 35666
				},
				"light0Color": {
					"type": 35666
				},
				"light1Pos": {
					"type": 35666
				},
				"light1Color": {
					"type": 35666
				}				
			},
			"attributes": {
				"a_position": "position",
				"a_normal": "normal",
				"a_color": "color"				
			},
			"uniforms": {
				"u_modelViewMatrix": "modelViewMatrix",
				"u_projectionMatrix": "projectionMatrix",
				"u_normalMatrix": "normalMatrix",
				"u_color": "color",
				"u_roughness": "roughness",
				"u_metallic": "metallic",
				"u_light0Pos": "light0Pos",
				"u_light0Color": "light0Color",
				"u_light1Pos": "light1Pos",
				"u_light1Color": "light1Color"				
			},
			"states": {
				"enable": [
					2929,
					2884
				],
				"functions": {
					"cullFace": [1029]
				}
			}
		},
		"technique_mat15": {
			"program": "program_mat15",
			"extras": {"gvrss" : "https://vr.google.com/shaders/w/gvrss/paper.json"},
			"parameters": {
				"position": {
					"type": 35665,
					"semantic": "POSITION"
				},
				"normal": {
					"type": 35665,
					"semantic": "NORMAL"
				},
				"color": {
					"type": 35666,
					"semantic": "COLOR"
				},
				"modelViewMatrix": {
					"type": 35676,
					"semantic": "MODELVIEW"
				},
				"projectionMatrix": {
					"type": 35676,
					"semantic": "PROJECTION"
				},
				"normalMatrix": {
					"type": 35675,
					"semantic": "MODELVIEWINVERSETRANSPOSE"
				},
				"color": {
					"type": 35666
				},
				"roughness": {
					"type": 5126
				},
				"metallic": {
					"type": 5126
				},
				"light0Pos": {
					"type": 35666
				},
				"light0Color": {
					"type": 35666
				},
				"light1Pos": {
					"type": 35666
				},
				"light1Color": {
					"type": 35666
				}				
			},
			"attributes": {
				"a_position": "position",
				"a_normal": "normal",
				"a_color": "color"				
			},
			"uniforms": {
				"u_modelViewMatrix": "modelViewMatrix",
				"u_projectionMatrix": "projectionMatrix",
				"u_normalMatrix": "normalMatrix",
				"u_color": "color",
				"u_roughness": "roughness",
				"u_metallic": "metallic",
				"u_light0Pos": "light0Pos",
				"u_light0Color": "light0Color",
				"u_light1Pos": "light1Pos",
				"u_light1Color": "light1Color"				
			},
			"states": {
				"enable": [
					2929,
					2884
				],
				"functions": {
					"cullFace": [1029]
				}
			}
		},
		"technique_mat24": {
			"program": "program_mat24",
			"extras": {"gvrss" : "https://vr.google.com/shaders/w/gvrss/glass.json"},
			"parameters": {
				"position": {
					"type": 35665,
					"semantic": "POSITION"
				},
				"normal": {
					"type": 35665,
					"semantic": "NORMAL"
				},
				"color": {
					"type": 35666,
					"semantic": "COLOR"
				},
				"modelViewMatrix": {
					"type": 35676,
					"semantic": "MODELVIEW"
				},
				"projectionMatrix": {
					"type": 35676,
					"semantic": "PROJECTION"
				},
				"normalMatrix": {
					"type": 35675,
					"semantic": "MODELVIEWINVERSETRANSPOSE"
				},
				"color": {
					"type": 35666
				},
				"roughness": {
					"type": 5126
				},
				"metallic": {
					"type": 5126
				},
				"light0Pos": {
					"type": 35666
				},
				"light0Color": {
					"type": 35666
				},
				"light1Pos": {
					"type": 35666
				},
				"light1Color": {
					"type": 35666
				}				
			},
			"attributes": {
				"a_position": "position",
				"a_normal": "normal",
				"a_color": "color"				
			},
			"uniforms": {
				"u_modelViewMatrix": "modelViewMatrix",
				"u_projectionMatrix": "projectionMatrix",
				"u_normalMatrix": "normalMatrix",
				"u_color": "color",
				"u_roughness": "roughness",
				"u_metallic": "metallic",
				"u_light0Pos": "light0Pos",
				"u_light0Color": "light0Color",
				"u_light1Pos": "light1Pos",
				"u_light1Color": "light1Color"				
			},
			"states": {
				"enable": [
					2929,
					3042
				],
				"functions": {
					"blendFuncSeparate": [775, 774, 773, 772],
					"depthMask": [true]
				}
			}
		},
		"technique_mat13": {
			"program": "program_mat13",
			"extras": {"gvrss" : "https://vr.google.com/shaders/w/gvrss/paper.json"},
			"parameters": {
				"position": {
					"type": 35665,
					"semantic": "POSITION"
				},
				"normal": {
					"type": 35665,
					"semantic": "NORMAL"
				},
				"color": {
					"type": 35666,
					"semantic": "COLOR"
				},
				"modelViewMatrix": {
					"type": 35676,
					"semantic": "MODELVIEW"
				},
				"projectionMatrix": {
					"type": 35676,
					"semantic": "PROJECTION"
				},
				"normalMatrix": {
					"type": 35675,
					"semantic": "MODELVIEWINVERSETRANSPOSE"
				},
				"color": {
					"type": 35666
				},
				"roughness": {
					"type": 5126
				},
				"metallic": {
					"type": 5126
				},
				"light0Pos": {
					"type": 35666
				},
				"light0Color": {
					"type": 35666
				},
				"light1Pos": {
					"type": 35666
				},
				"light1Color": {
					"type": 35666
				}				
			},
			"attributes": {
				"a_position": "position",
				"a_normal": "normal",
				"a_color": "color"				
			},
			"uniforms": {
				"u_modelViewMatrix": "modelViewMatrix",
				"u_projectionMatrix": "projectionMatrix",
				"u_normalMatrix": "normalMatrix",
				"u_color": "color",
				"u_roughness": "roughness",
				"u_metallic": "metallic",
				"u_light0Pos": "light0Pos",
				"u_light0Color": "light0Color",
				"u_light1Pos": "light1Pos",
				"u_light1Color": "light1Color"				
			},
			"states": {
				"enable": [
					2929,
					2884
				],
				"functions": {
					"cullFace": [1029]
				}
			}
		}
	},
	"materials": {
		"material_mat21": {
			"technique": "technique_mat21",
			"values": {
				"color": [1, 1, 1, 1],
				"roughness": 1,
				"metallic": 0,
				"light0Pos": [-0.02, 4.11, -0.54, 0],
				"light0Color": [1.28, 1.232075, 1.101177, 0],
				"light1Pos": [0.02, -4.11, 0.54, 0],
				"light1Color": [0.2941177, 0.2953672, 0.32, 0]				
			},
			"name": "material_mat21"
		},
		"material_mat6": {
			"technique": "technique_mat6",
			"values": {
				"color": [0.972549, 0.7333333, 0.8156863, 1],
				"roughness": 1,
				"metallic": 0,
				"light0Pos": [-0.02, 4.11, -0.54, 0],
				"light0Color": [1.28, 1.232075, 1.101177, 0],
				"light1Pos": [0.02, -4.11, 0.54, 0],
				"light1Color": [0.2941177, 0.2953672, 0.32, 0]				
			},
			"name": "material_mat6"
		},
		"material_mat15": {
			"technique": "technique_mat15",
			"values": {
				"color": [0.8117647, 0.8470588, 0.8627451, 1],
				"roughness": 1,
				"metallic": 0,
				"light0Pos": [-0.02, 4.11, -0.54, 0],
				"light0Color": [1.28, 1.232075, 1.101177, 0],
				"light1Pos": [0.02, -4.11, 0.54, 0],
				"light1Color": [0.2941177, 0.2953672, 0.32, 0]				
			},
			"name": "material_mat15"
		},
		"material_mat24": {
			"technique": "technique_mat24",
			"values": {
				"color": [0.8392157, 0.8392157, 0.8392157, 0.2509804],
				"roughness": 0,
				"metallic": 0,
				"light0Pos": [-0.02, 4.11, -0.54, 0],
				"light0Color": [1.28, 1.232075, 1.101177, 0],
				"light1Pos": [0.02, -4.11, 0.54, 0],
				"light1Color": [0.2941177, 0.2953672, 0.32, 0]				
			},
			"name": "material_mat24"
		},
		"material_mat13": {
			"technique": "technique_mat13",
			"values": {
				"color": [1, 0.5960785, 0, 1],
				"roughness": 1,
				"metallic": 0,
				"light0Pos": [-0.02, 4.11, -0.54, 0],
				"light0Color": [1.28, 1.232075, 1.101177, 0],
				"light1Pos": [0.02, -4.11, 0.54, 0],
				"light1Color": [0.2941177, 0.2953672, 0.32, 0]				
			},
			"name": "material_mat13"
		}
	},
	"nodes": {
		"node_MeshObject1482809344-PolyPaper21": {
			"name": "node_MeshObject1482809344-PolyPaper21",
			"meshes": [
				"mesh_m0-PolyPaper21_-185500"
			],
			"matrix": [1, 0, 0, 0, 0, 1, 0, 0, 0, 0, 1, 0, 0, 0, 0, 1]
		},
		"node_MeshObject2054888448-PolyPaper6": {
			"name": "node_MeshObject2054888448-PolyPaper6",
			"meshes": [
				"mesh_m1-PolyPaper6_-185506"
			],
			"matrix": [1, 0, 0, 0, 0, 1, 0, 0, 0, 0, 1, 0, 0, 0, 0, 1]
		},
		"node_MeshObject-1667999744-PolyPaper15": {
			"name": "node_MeshObject-1667999744-PolyPaper15",
			"meshes": [
				"mesh_m2-PolyPaper15_-185512"
			],
			"matrix": [1, 0, 0, 0, 0, 1, 0, 0, 0, 0, 1, 0, 0, 0, 0, 1]
		},
		"node_MeshObject-1095920640-PolyPaper15": {
			"name": "node_MeshObject-1095920640-PolyPaper15",
			"meshes": [
				"mesh_m3-PolyPaper15_-185518"
			],
			"matrix": [1, 0, 0, 0, 0, 1, 0, 0, 0, 0, 1, 0, 0, 0, 0, 1]
		},
		"node_MeshObject-523841536-PolyPaper21": {
			"name": "node_MeshObject-523841536-PolyPaper21",
			"meshes": [
				"mesh_m4-PolyPaper21_-185524"
			],
			"matrix": [1, 0, 0, 0, 0, 1, 0, 0, 0, 0, 1, 0, 0, 0, 0, 1]
		},
		"node_MeshObject48237568-PolyPaper21": {
			"name": "node_MeshObject48237568-PolyPaper21",
			"meshes": [
				"mesh_m5-PolyPaper21_-185530"
			],
			"matrix": [1, 0, 0, 0, 0, 1, 0, 0, 0, 0, 1, 0, 0, 0, 0, 1]
		},
		"node_MeshObject1192395776-PolyPaper13": {
			"name": "node_MeshObject1192395776-PolyPaper13",
			"meshes": [
				"mesh_m7-PolyPaper13_-185542"
			],
			"matrix": [1, 0, 0, 0, 0, 1, 0, 0, 0, 0, 1, 0, 0, 0, 0, 1]
		}
	},
	"scene": "defaultScene",
	"scenes": {
		"defaultScene": {
			"nodes": [
				"node_MeshObject1482809344-PolyPaper21",
				"node_MeshObject2054888448-PolyPaper6",
				"node_MeshObject-1667999744-PolyPaper15",
				"node_MeshObject-1095920640-PolyPaper15",
				"node_MeshObject-523841536-PolyPaper21",
				"node_MeshObject48237568-PolyPaper21",
				"node_MeshObject1192395776-PolyPaper13"
			],
			"extras": {

			}
		}
	}
}